<svg width="36" height="28" viewBox="0 0 36 28" fill="none" xmlns="http://www.w3.org/2000/svg">
<path d="M10 0C7.79375 0 6 1.79375 6 4V18C6 20.2062 7.79375 22 10 22H32C34.2062 22 36 20.2062 36 18V4C36 1.79375 34.2062 0 32 0H10ZM21 6C23.7625 6 26 8.2375 26 11C26 13.7625 23.7625 16 21 16C18.2375 16 16 13.7625 16 11C16 8.2375 18.2375 6 21 6ZM10 7.5V4.5C10 4.225 10.225 4 10.5 4H13.5C13.775 4 14.0063 4.225 13.9688 4.5C13.7437 6.3125 12.3062 7.74375 10.5 7.96875C10.225 8 10 7.775 10 7.5ZM10 14.5C10 14.225 10.225 13.9937 10.5 14.0312C12.3125 14.2563 13.7437 15.6938 13.9688 17.5C14 17.775 13.775 18 13.5 18H10.5C10.225 18 10 17.775 10 17.5V14.5ZM31.5 7.96875C29.6875 7.74375 28.2563 6.30625 28.0312 4.5C28 4.225 28.225 4 28.5 4H31.5C31.775 4 32 4.225 32 4.5V7.5C32 7.775 31.775 8.00625 31.5 7.96875ZM32 14.5V17.5C32 17.775 31.775 18 31.5 18H28.5C28.225 18 27.9937 17.775 28.0312 17.5C28.2563 15.6875 29.6938 14.2563 31.5 14.0312C31.775 14 32 14.225 32 14.5ZM3 7.5C3 6.66875 2.33125 6 1.5 6C0.66875 6 0 6.66875 0 7.5V24C0 26.2062 1.79375 28 4 28H28.5C29.3312 28 30 27.3312 30 26.5C30 25.6688 29.3312 25 28.5 25H4C3.45 25 3 24.55 3 24V7.5Z" fill="#101010"/>
</svg>
