<svg width="12" height="12" viewBox="0 0 12 12" fill="none" xmlns="http://www.w3.org/2000/svg">
<path d="M10.875 6C10.875 8.69297 8.69297 10.875 6 10.875C3.30703 10.875 1.125 8.69297 1.125 6C1.125 3.30703 3.30703 1.125 6 1.125C8.69297 1.125 10.875 3.30703 10.875 6ZM0 6C0 9.31406 2.68594 12 6 12C9.31406 12 12 9.31406 12 6C12 2.68594 9.31406 0 6 0C2.68594 0 0 2.68594 0 6ZM5.4375 2.8125V6C5.4375 6.1875 5.53125 6.36328 5.68828 6.46875L7.93828 7.96875C8.19609 8.14219 8.54531 8.07187 8.71875 7.81172C8.89219 7.55156 8.82187 7.20469 8.56172 7.03125L6.5625 5.7V2.8125C6.5625 2.50078 6.31172 2.25 6 2.25C5.68828 2.25 5.4375 2.50078 5.4375 2.8125Z" fill="#888888"/>
</svg>
