<svg width="20" height="15" viewBox="0 0 20 15" fill="none" xmlns="http://www.w3.org/2000/svg">
<path d="M2.5 0C1.12109 0 0 1.12109 0 2.5V12.5C0 13.8789 1.12109 15 2.5 15H17.5C18.8789 15 20 13.8789 20 12.5V2.5C20 1.12109 18.8789 0 17.5 0H2.5ZM6.25 10C6.25 10.6914 5.69141 11.25 5 11.25C4.30859 11.25 3.75 10.6914 3.75 10C3.75 9.30859 4.30859 8.75 5 8.75C5.69141 8.75 6.25 9.30859 6.25 10ZM5 6.25C4.30859 6.25 3.75 5.69141 3.75 5C3.75 4.30859 4.30859 3.75 5 3.75C5.69141 3.75 6.25 4.30859 6.25 5C6.25 5.69141 5.69141 6.25 5 6.25ZM9.6875 4.0625H15.3125C15.832 4.0625 16.25 4.48047 16.25 5C16.25 5.51953 15.832 5.9375 15.3125 5.9375H9.6875C9.16797 5.9375 8.75 5.51953 8.75 5C8.75 4.48047 9.16797 4.0625 9.6875 4.0625ZM9.6875 9.0625H15.3125C15.832 9.0625 16.25 9.48047 16.25 10C16.25 10.5195 15.832 10.9375 15.3125 10.9375H9.6875C9.16797 10.9375 8.75 10.5195 8.75 10C8.75 9.48047 9.16797 9.0625 9.6875 9.0625Z" fill="#101010"/>
</svg>
