<svg width="32" height="24" viewBox="0 0 32 24" fill="none" xmlns="http://www.w3.org/2000/svg">
<path d="M0 4V6H32V4C32 1.79375 30.2062 0 28 0H4C1.79375 0 0 1.79375 0 4ZM0 9V20C0 22.2062 1.79375 24 4 24H28C30.2062 24 32 22.2062 32 20V9H0ZM4 18.5C4 17.6688 4.66875 17 5.5 17H8.5C9.33125 17 10 17.6688 10 18.5C10 19.3312 9.33125 20 8.5 20H5.5C4.66875 20 4 19.3312 4 18.5ZM13 18.5C13 17.6688 13.6687 17 14.5 17H18.5C19.3312 17 20 17.6688 20 18.5C20 19.3312 19.3312 20 18.5 20H14.5C13.6687 20 13 19.3312 13 18.5Z" fill="#101010"/>
</svg>
