<svg width="15" height="15" viewBox="0 0 15 15" fill="none" xmlns="http://www.w3.org/2000/svg">
<path d="M8.08594 3.54375C8.30156 3.37266 8.4375 3.10781 8.4375 2.8125C8.4375 2.29453 8.01797 1.875 7.5 1.875C6.98203 1.875 6.5625 2.29453 6.5625 2.8125C6.5625 3.10781 6.70078 3.37266 6.91406 3.54375L5.31094 6.06562C5.07656 6.43359 4.57734 6.525 4.22812 6.2625L2.83359 5.21953C2.93906 5.06953 3 4.88438 3 4.6875C3 4.16953 2.58047 3.75 2.0625 3.75C1.54453 3.75 1.125 4.16953 1.125 4.6875C1.125 5.19844 1.53516 5.61562 2.04375 5.625L2.80781 10.7227C2.91797 11.4563 3.54844 12 4.29141 12H10.7086C11.4516 12 12.082 11.4563 12.1922 10.7227L12.9562 5.625C13.4648 5.61562 13.875 5.19844 13.875 4.6875C13.875 4.16953 13.4555 3.75 12.9375 3.75C12.4195 3.75 12 4.16953 12 4.6875C12 4.88438 12.0609 5.06953 12.1664 5.21953L10.7742 6.26484C10.425 6.52734 9.92578 6.43594 9.69141 6.06797L8.08594 3.54375Z" fill="#FFC700"/>
</svg>
