<svg width="25" height="25" viewBox="0 0 25 25" fill="none" xmlns="http://www.w3.org/2000/svg">
<path d="M10.1207 2.87109C10.2379 2.29297 10.7496 1.875 11.3434 1.875H13.6793C14.273 1.875 14.7848 2.29297 14.9019 2.87109L15.4684 5.60547C16.0191 5.83984 16.5348 6.14062 17.0035 6.49609L19.6519 5.61719C20.2144 5.42969 20.8316 5.66406 21.1285 6.17969L22.2965 8.20312C22.5934 8.71875 22.4879 9.36719 22.0426 9.76172L19.9605 11.6133C19.9957 11.9023 20.0113 12.1992 20.0113 12.5C20.0113 12.8008 19.9918 13.0977 19.9605 13.3867L22.0465 15.2422C22.4918 15.6367 22.5934 16.2891 22.3004 16.8008L21.1324 18.8242C20.8355 19.3359 20.2184 19.5742 19.6559 19.3867L17.0074 18.5078C16.5348 18.8633 16.0191 19.1602 15.4723 19.3984L14.9098 22.1289C14.7887 22.7109 14.2769 23.125 13.6871 23.125H11.3512C10.7574 23.125 10.2457 22.707 10.1285 22.1289L9.56601 19.3984C9.01523 19.1641 8.50351 18.8633 8.03085 18.5078L5.3707 19.3867C4.8082 19.5742 4.19101 19.3398 3.89413 18.8242L2.72617 16.8008C2.42929 16.2852 2.53476 15.6367 2.98007 15.2422L5.06601 13.3867C5.03085 13.0977 5.01523 12.8008 5.01523 12.5C5.01523 12.1992 5.03476 11.9023 5.06601 11.6133L2.98007 9.75781C2.53476 9.36328 2.4332 8.71094 2.72617 8.19922L3.89413 6.17578C4.19101 5.66016 4.8082 5.42578 5.3707 5.61328L8.01913 6.49219C8.49179 6.13672 9.00742 5.83984 9.55429 5.60156L10.1207 2.87109ZM12.5113 15.625C14.2379 15.6172 15.6324 14.2148 15.6246 12.4883C15.6168 10.7617 14.2144 9.36719 12.4879 9.375C10.7613 9.38281 9.36679 10.7852 9.3746 12.5117C9.38242 14.2383 10.7848 15.6328 12.5113 15.625Z" fill="#888888"/>
</svg>
