<svg width="9" height="13" viewBox="0 0 9 13" fill="none" xmlns="http://www.w3.org/2000/svg">
<path d="M-9.7692e-05 4.92031C-9.7692e-05 2.47813 2.01553 0.5 4.4999 0.5C6.98428 0.5 8.9999 2.47813 8.9999 4.92031C8.9999 7.71641 6.18272 11.068 5.00615 12.3453C4.72959 12.6453 4.26787 12.6453 3.99131 12.3453C2.81475 11.068 -0.00244141 7.71641 -0.00244141 4.92031H-9.7692e-05ZM4.4999 6.5C5.32725 6.5 5.9999 5.82734 5.9999 5C5.9999 4.17266 5.32725 3.5 4.4999 3.5C3.67256 3.5 2.9999 4.17266 2.9999 5C2.9999 5.82734 3.67256 6.5 4.4999 6.5Z" fill="#888888"/>
</svg>
