<svg width="25" height="25" viewBox="0 0 25 25" fill="none" xmlns="http://www.w3.org/2000/svg">
<path d="M18.75 10.625C18.75 12.418 18.168 14.0742 17.1875 15.418L22.1328 20.3672C22.6211 20.8555 22.6211 21.6484 22.1328 22.1367C21.6445 22.625 20.8516 22.625 20.3633 22.1367L15.418 17.1875C14.0742 18.168 12.418 18.75 10.625 18.75C6.13672 18.75 2.5 15.1133 2.5 10.625C2.5 6.13672 6.13672 2.5 10.625 2.5C15.1133 2.5 18.75 6.13672 18.75 10.625ZM10.625 16.25C13.7305 16.25 16.25 13.7305 16.25 10.625C16.25 7.51953 13.7305 5 10.625 5C7.51953 5 5 7.51953 5 10.625C5 13.7305 7.51953 16.25 10.625 16.25Z" fill="#888888"/>
</svg>
