<svg width="29" height="22" viewBox="0 0 29 22" fill="none" xmlns="http://www.w3.org/2000/svg">
<path d="M12.375 0C11.7516 0 11.25 0.501562 11.25 1.125C11.25 1.74844 11.7516 2.25 12.375 2.25H15.0281L16.0828 4.53281L11.625 7.875C10.0594 6.69844 8.10938 6 6 6H3.375C2.75156 6 2.25 6.50156 2.25 7.125C2.25 7.74844 2.75156 8.25 3.375 8.25H6C9.67969 8.25 12.7125 11.0437 13.0875 14.625H11.8969C11.3719 11.85 8.92969 9.75 6 9.75C2.68594 9.75 0 12.4359 0 15.75C0 19.0641 2.68594 21.75 6 21.75C8.92969 21.75 11.3672 19.65 11.8969 16.875H14.25C14.8734 16.875 15.375 16.3734 15.375 15.75V14.6953C15.375 12.5813 16.5797 10.6922 18.4453 9.64687L19.0125 10.8703C17.4937 11.9578 16.5047 13.7391 16.5047 15.75C16.5047 19.0641 19.1906 21.75 22.5047 21.75C25.8188 21.75 28.5047 19.0641 28.5047 15.75C28.5047 12.4359 25.8188 9.75 22.5047 9.75C22.0031 9.75 21.5203 9.81094 21.0563 9.92812L19.5844 6.75H22.125C22.7484 6.75 23.25 6.24844 23.25 5.625V3.375C23.25 2.75156 22.7484 2.25 22.125 2.25H19.6266C19.3031 2.25 18.9844 2.35312 18.7266 2.55L17.925 3.15L16.7719 0.651563C16.5891 0.253125 16.1906 0 15.75 0H12.375ZM20.1469 13.3312L21.4781 16.2188C21.7406 16.7812 22.4062 17.0297 22.9688 16.7672C23.5312 16.5047 23.7797 15.8391 23.5172 15.2766L22.1813 12.3891C22.2844 12.3797 22.3875 12.375 22.4953 12.375C24.3609 12.375 25.8703 13.8844 25.8703 15.75C25.8703 17.6156 24.3609 19.125 22.4953 19.125C20.6297 19.125 19.1203 17.6156 19.1203 15.75C19.1203 14.8031 19.5094 13.9453 20.1422 13.3312H20.1469ZM6 19.125C4.13438 19.125 2.625 17.6156 2.625 15.75C2.625 13.8844 4.13438 12.375 6 12.375C7.46719 12.375 8.71875 13.3125 9.18281 14.625H6C5.37656 14.625 4.875 15.1266 4.875 15.75C4.875 16.3734 5.37656 16.875 6 16.875H9.18281C8.71875 18.1875 7.46719 19.125 6 19.125Z" fill="black"/>
</svg>
