<svg width="30" height="30" viewBox="0 0 30 30" fill="none" xmlns="http://www.w3.org/2000/svg">
<path d="M6.65625 3.10331C7.05469 2.9205 7.52344 2.98613 7.85625 3.27207L9.75 4.89394L11.6437 3.27207C12.0656 2.91113 12.6891 2.91113 13.1063 3.27207L15 4.89394L16.8937 3.27207C17.3156 2.91113 17.9344 2.91113 18.3563 3.27207L20.25 4.89394L22.1437 3.27207C22.4766 2.98613 22.9453 2.9205 23.3438 3.10331C23.7422 3.28613 24 3.68456 24 4.12519V25.8752C24 26.3158 23.7422 26.7143 23.3438 26.8971C22.9453 27.0799 22.4766 27.0143 22.1437 26.7283L20.25 25.1064L18.3563 26.7283C17.9344 27.0893 17.3156 27.0893 16.8937 26.7283L15 25.1064L13.1063 26.7283C12.6844 27.0893 12.0609 27.0893 11.6437 26.7283L9.75 25.1064L7.85625 26.7283C7.52344 27.0143 7.05469 27.0799 6.65625 26.8971C6.25781 26.7143 6 26.3158 6 25.8752V4.12519C6 3.68456 6.25781 3.28613 6.65625 3.10331ZM10.875 9.37519C10.2516 9.37519 9.75 9.87675 9.75 10.5002C9.75 11.1236 10.2516 11.6252 10.875 11.6252H19.125C19.7484 11.6252 20.25 11.1236 20.25 10.5002C20.25 9.87675 19.7484 9.37519 19.125 9.37519H10.875ZM9.75 19.5002C9.75 20.1236 10.2516 20.6252 10.875 20.6252H19.125C19.7484 20.6252 20.25 20.1236 20.25 19.5002C20.25 18.8768 19.7484 18.3752 19.125 18.3752H10.875C10.2516 18.3752 9.75 18.8768 9.75 19.5002ZM10.875 13.8752C10.2516 13.8752 9.75 14.3768 9.75 15.0002C9.75 15.6236 10.2516 16.1252 10.875 16.1252H19.125C19.7484 16.1252 20.25 15.6236 20.25 15.0002C20.25 14.3768 19.7484 13.8752 19.125 13.8752H10.875Z" fill="#888888"/>
</svg>
