<svg width="17" height="17" viewBox="0 0 17 17" fill="none" xmlns="http://www.w3.org/2000/svg">
<path d="M11.0744 2.26332L9.88173 3.45598L13.5447 7.11895L14.7373 5.92629C15.0986 5.5677 15.3005 5.07895 15.3005 4.56895C15.3005 4.05895 15.0986 3.5702 14.7373 3.2116L13.7891 2.26332C13.4305 1.90207 12.9417 1.7002 12.4317 1.7002C11.9217 1.7002 11.433 1.90207 11.0744 2.26332ZM8.98126 4.35645L3.26501 10.07C2.98079 10.3543 2.7736 10.7102 2.66469 11.098L1.72438 14.4927C1.66329 14.7132 1.72438 14.9522 1.88907 15.1143C2.05376 15.2763 2.29016 15.34 2.51063 15.2789L5.90532 14.336C6.29313 14.2271 6.64641 14.0225 6.93329 13.7357L12.6442 8.01941L8.98126 4.35645Z" fill="white"/>
</svg>
