<svg width="14" height="14" viewBox="0 0 14 14" fill="none" xmlns="http://www.w3.org/2000/svg">
<path d="M4.90406 1.94753C4.73124 1.53409 4.28062 1.31534 3.85187 1.43128L3.73156 1.46409C2.31843 1.84909 1.11093 3.21847 1.46312 4.88534C2.27468 8.71347 5.28687 11.7257 9.115 12.5372C10.7841 12.8916 12.1512 11.6819 12.5362 10.2688L12.5691 10.1485C12.6872 9.71753 12.4662 9.26691 12.055 9.09628L9.92656 8.21034C9.56562 8.05941 9.14781 8.16441 8.89843 8.46847L8.05406 9.50097C6.51625 8.73753 5.27812 7.46003 4.56718 5.89159L5.53406 5.10409C5.83812 4.85691 5.94093 4.43909 5.79218 4.07597L4.90406 1.94753Z" fill="#888888"/>
</svg>
