<svg width="32" height="32" viewBox="0 0 32 32" fill="none" xmlns="http://www.w3.org/2000/svg">
<path d="M15.1453 18.2766C15.4828 17.9391 16.0641 17.9391 16.4016 18.2766L21.2141 23.0891C22.1016 23.9766 23.2828 24.4641 24.5328 24.4641H25.4766L19.4078 30.5328C17.5141 32.3766 14.4391 32.3766 12.5453 30.5328L6.45156 24.4453H7.03281C8.28281 24.4453 9.46406 23.9578 10.3516 23.0703L15.1453 18.2766ZM16.4016 13.6766C16.0016 14.0203 15.4891 14.0266 15.1453 13.6766L10.3516 8.88281C9.46406 7.93906 8.28281 7.50781 7.03281 7.50781H6.45156L12.5391 1.42031C14.4391 -0.473438 17.5141 -0.473438 19.4078 1.42031L25.4828 7.48906H24.5328C23.2828 7.48906 22.1016 7.97656 21.2141 8.86406L16.4016 13.6766ZM7.03281 8.91406C7.89531 8.91406 8.68906 9.26406 9.35156 9.87656L14.1453 14.6703C14.5953 15.0641 15.1828 15.3453 15.7766 15.3453C16.3641 15.3453 16.9516 15.0641 17.4016 14.6703L22.2141 9.85781C22.8266 9.25156 23.6703 8.90156 24.5328 8.90156H26.8891L30.5328 12.5453C32.4266 14.4391 32.4266 17.5141 30.5328 19.4078L26.8891 23.0516H24.5328C23.6703 23.0516 22.8266 22.7016 22.2141 22.0891L17.4016 17.2766C16.5328 16.4078 15.0141 16.4078 14.1453 17.2828L9.35156 22.0703C8.68906 22.6828 7.89531 23.0328 7.03281 23.0328H5.04531L1.42031 19.4078C-0.473438 17.5141 -0.473438 14.4391 1.42031 12.5453L5.04531 8.91406H7.03281Z" fill="#FFC700"/>
</svg>
